<svg width="500" height="500" viewBox="0 0 500 500" fill="none" xmlns="http://www.w3.org/2000/svg">
<g clip-path="url(#clip0_786_10)">
<rect width="500" height="500" rx="250" fill="url(#paint0_linear_786_10)"/>
<rect width="500" height="500" fill="white"/>
<path d="M307.372 377.734C307.372 409.65 281.381 435.523 249.321 435.523C217.261 435.523 191.271 409.65 191.271 377.734C191.271 345.819 244 300.49 249.321 286.043C255.61 301.453 307.372 345.819 307.372 377.734Z" fill="#3532A7"/>
<ellipse cx="170.227" cy="283.866" rx="54.4223" ry="13.787" fill="#3532A7"/>
<path d="M225.318 270.747C213.499 267.58 189.956 259.986 161.509 231.539C133.061 203.091 126.219 183.984 122.3 167.73C136.328 171.489 157.662 178.491 186.109 206.938C214.557 235.386 220.599 255.098 225.318 270.747Z" fill="#3532A7"/>
<path d="M274.683 270.747C277.849 258.928 285.443 235.386 313.891 206.938C342.338 178.491 361.446 171.648 377.7 167.73C373.941 181.758 366.939 203.091 338.491 231.539C310.044 259.986 290.331 266.029 274.683 270.747Z" fill="#3532A7"/>
<ellipse cx="329.867" cy="283.866" rx="54.4223" ry="13.787" fill="#3532A7"/>
<ellipse cx="249.321" cy="165.588" rx="34.8303" ry="101.588" fill="#3532A7"/>
</g>
<defs>
<linearGradient id="paint0_linear_786_10" x1="500" y1="250" x2="0" y2="250" gradientUnits="userSpaceOnUse">
<stop stop-color="#4A48B0"/>
<stop offset="1" stop-color="#423FAD"/>
</linearGradient>
<clipPath id="clip0_786_10">
<rect width="500" height="500" rx="250" fill="white"/>
</clipPath>
</defs>
</svg>
